<?xml version="1.0" standalone="no"?>
<!DOCTYPE svg PUBLIC "-//W3C//DTD SVG 20010904//EN"
 "http://www.w3.org/TR/2001/REC-SVG-20010904/DTD/svg10.dtd">
<svg version="1.0" xmlns="http://www.w3.org/2000/svg"
 width="512.000000pt" height="512.000000pt" viewBox="0 0 512.000000 512.000000"
 preserveAspectRatio="xMidYMid meet">
<metadata>FanBridge pinned tab icon (monochrome)</metadata>
<g transform="translate(0.000000,512.000000) scale(0.100000,-0.100000)"
fill="#000000" stroke="none">
<path d="M2410 5109 c-495 -47 -977 -265 -1342 -606 -410 -384 -658 -871 -723
-1443 -67 -597 126 -1213 526 -1680 390 -456 917 -744 1519 -825 146 -20 472
-20 615 0 853 119 1557 660 1894 1450 345 806 223 1731 -319 2435 -399 507
-1031 840 -1700 905 -131 13 -337 15 -470 4z"/>
<path d="M2465 4123 c-257 -25 -508 -151 -693 -349 -283 -305 -352 -738 -181
-1094 31 -64 105 -176 148 -223 l24 -26 -54 -23 c-88 -36 -196 -113 -269
-192 -113 -122 -187 -263 -222 -424 -16 -73 -16 -267 0 -340 83 -381 384 -682
765 -765 73 -16 267 -16 340 0 343 75 607 317 705 650 31 108 43 263 26 353
-35 184 -113 324 -261 471 -78 78 -205 164 -291 198 -18 6 -32 16 -32 22 0 6
21 37 46 68 141 178 218 382 231 611 14 253 -62 493 -219 691 -179 226 -456
384 -741 419 -84 10 -161 12 -222 3z"/>
</g>
</svg>
